<svg xmlns="http://www.w3.org/2000/svg" style="display:none">
<symbol id="icon-file-text" viewBox="0 0 24 24"><path d="M6 22a2 2 0 0 1-2-2V4a2 2 0 0 1 2-2h8a2.4 2.4 0 0 1 1.704.706l3.588 3.588A2.4 2.4 0 0 1 20 8v12a2 2 0 0 1-2 2z" />
  <path d="M14 2v5a1 1 0 0 0 1 1h5" />
  <path d="M10 9H8" />
  <path d="M16 13H8" />
  <path d="M16 17H8" /></symbol>
<symbol id="icon-file-plus-corner" viewBox="0 0 24 24"><path d="M6 22a2 2 0 0 1-2-2V4a2 2 0 0 1 2-2h8a2.4 2.4 0 0 1 1.704.706l3.588 3.588A2.4 2.4 0 0 1 20 8v12a2 2 0 0 1-2 2z" />
  <path d="M14 2v5a1 1 0 0 0 1 1h5" />
  <path d="M9 15h6" />
  <path d="M12 18v-6" /></symbol>
<symbol id="icon-settings" viewBox="0 0 24 24"><path d="M9.671 4.136a2.34 2.34 0 0 1 4.659 0 2.34 2.34 0 0 0 3.319 1.915 2.34 2.34 0 0 1 2.33 4.033 2.34 2.34 0 0 0 0 3.831 2.34 2.34 0 0 1-2.33 4.033 2.34 2.34 0 0 0-3.319 1.915 2.34 2.34 0 0 1-4.659 0 2.34 2.34 0 0 0-3.32-1.915 2.34 2.34 0 0 1-2.33-4.033 2.34 2.34 0 0 0 0-3.831A2.34 2.34 0 0 1 6.35 6.051a2.34 2.34 0 0 0 3.319-1.915" />
  <circle cx="12" cy="12" r="3" /></symbol>
<symbol id="icon-log-out" viewBox="0 0 24 24"><path d="m16 17 5-5-5-5" />
  <path d="M21 12H9" />
  <path d="M9 21H5a2 2 0 0 1-2-2V5a2 2 0 0 1 2-2h4" /></symbol>
<symbol id="icon-file-pen-line" viewBox="0 0 24 24"><path d="m18.226 5.226-2.52-2.52A2.4 2.4 0 0 0 14 2H6a2 2 0 0 0-2 2v16a2 2 0 0 0 2 2h12a2 2 0 0 0 2-2v-.351" />
  <path d="M21.378 12.626a1 1 0 0 0-3.004-3.004l-4.01 4.012a2 2 0 0 0-.506.854l-.837 2.87a.5.5 0 0 0 .62.62l2.87-.837a2 2 0 0 0 .854-.506z" />
  <path d="M8 18h1" /></symbol>
<symbol id="icon-circle-x" viewBox="0 0 24 24"><circle cx="12" cy="12" r="10" />
  <path d="m15 9-6 6" />
  <path d="m9 9 6 6" /></symbol>
<symbol id="icon-save" viewBox="0 0 24 24"><path d="M15.2 3a2 2 0 0 1 1.4.6l3.8 3.8a2 2 0 0 1 .6 1.4V19a2 2 0 0 1-2 2H5a2 2 0 0 1-2-2V5a2 2 0 0 1 2-2z" />
  <path d="M17 21v-7a1 1 0 0 0-1-1H8a1 1 0 0 0-1 1v7" />
  <path d="M7 3v4a1 1 0 0 0 1 1h7" /></symbol>
<symbol id="icon-eye" viewBox="0 0 24 24"><path d="M2.062 12.348a1 1 0 0 1 0-.696 10.75 10.75 0 0 1 19.876 0 1 1 0 0 1 0 .696 10.75 10.75 0 0 1-19.876 0" />
  <circle cx="12" cy="12" r="3" /></symbol>
<symbol id="icon-upload" viewBox="0 0 24 24"><path d="M12 3v12" />
  <path d="m17 8-5-5-5 5" />
  <path d="M21 15v4a2 2 0 0 1-2 2H5a2 2 0 0 1-2-2v-4" /></symbol>
<symbol id="icon-arrow-left" viewBox="0 0 24 24"><path d="m12 19-7-7 7-7" />
  <path d="M19 12H5" /></symbol>
<symbol id="icon-copy" viewBox="0 0 24 24"><rect width="14" height="14" x="8" y="8" rx="2" ry="2" />
  <path d="M4 16c-1.1 0-2-.9-2-2V4c0-1.1.9-2 2-2h10c1.1 0 2 .9 2 2" /></symbol>
<symbol id="icon-circle-check" viewBox="0 0 24 24"><circle cx="12" cy="12" r="10" />
  <path d="m9 12 2 2 4-4" /></symbol>
<symbol id="icon-circle-gauge" viewBox="0 0 24 24"><path d="M15.6 2.7a10 10 0 1 0 5.7 5.7" />
  <circle cx="12" cy="12" r="2" />
  <path d="M13.4 10.6 19 5" /></symbol>
<symbol id="icon-calendar" viewBox="0 0 24 24"><path d="M8 2v4" />
  <path d="M16 2v4" />
  <rect width="18" height="18" x="3" y="4" rx="2" />
  <path d="M3 10h18" /></symbol>
<symbol id="icon-toggle-right" viewBox="0 0 24 24"><circle cx="15" cy="12" r="3" />
  <rect width="20" height="14" x="2" y="5" rx="7" /></symbol>
<symbol id="icon-globe" viewBox="0 0 24 24"><circle cx="12" cy="12" r="10" />
  <path d="M12 2a14.5 14.5 0 0 0 0 20 14.5 14.5 0 0 0 0-20" />
  <path d="M2 12h20" /></symbol>
<symbol id="icon-braces" viewBox="0 0 24 24"><path d="M8 3H7a2 2 0 0 0-2 2v5a2 2 0 0 1-2 2 2 2 0 0 1 2 2v5c0 1.1.9 2 2 2h1" />
  <path d="M16 21h1a2 2 0 0 0 2-2v-5c0-1.1.9-2 2-2a2 2 0 0 1-2-2V5a2 2 0 0 0-2-2h-1" /></symbol>
<symbol id="icon-user" viewBox="0 0 24 24"><path d="M19 21v-2a4 4 0 0 0-4-4H9a4 4 0 0 0-4 4v2" />
  <circle cx="12" cy="7" r="4" /></symbol>
<symbol id="icon-paintbrush" viewBox="0 0 24 24"><path d="m14.622 17.897-10.68-2.913" />
  <path d="M18.376 2.622a1 1 0 1 1 3.002 3.002L17.36 9.643a.5.5 0 0 0 0 .707l.944.944a2.41 2.41 0 0 1 0 3.408l-.944.944a.5.5 0 0 1-.707 0L8.354 7.348a.5.5 0 0 1 0-.707l.944-.944a2.41 2.41 0 0 1 3.408 0l.944.944a.5.5 0 0 0 .707 0z" />
  <path d="M9 8c-1.804 2.71-3.97 3.46-6.583 3.948a.507.507 0 0 0-.302.819l7.32 8.883a1 1 0 0 0 1.185.204C12.735 20.405 16 16.792 16 15" /></symbol>
<symbol id="icon-upgrade" viewBox="0 0 24 24"><path d="M12 2a10 10 0 0 1 7.38 16.75" />
  <path d="m16 12-4-4-4 4" />
  <path d="M12 16V8" />
  <path d="M2.5 8.875a10 10 0 0 0-.5 3" />
  <path d="M2.83 16a10 10 0 0 0 2.43 3.4" />
  <path d="M4.636 5.235a10 10 0 0 1 .891-.857" />
  <path d="M8.644 21.42a10 10 0 0 0 7.631-.38" /></symbol>
</svg>
